#!OML:ASF F:\VICON\USERDATA\INSTALL\rory3\rory3.ASF
:FULLY-SPECIFIED
:DEGREES
867
root 1.50866 32.7864 -2.48181 -161.563 -15.1223 -175.578
lowerback 9.65918 -1.62913 -4.46038
upperback 1.71197 -2.74821 -0.0812801
thorax -3.42683 -1.36882 2.7634
lowerneck -13.0066 9.58898 -26.0708
upperneck 38.9657 10.8952 19.6655
head 11.8485 2.56168 13.6324
rclavicle -1.43125e-014 1.11319e-014
rhumerus -15.1355 0.580016 -83.1964
rradius 72.8649
rwrist -9.98813
rhand -30.4737 12.6351
rfingers 7.12502
rthumb -3.77491 -17.3112
lclavicle -1.43125e-014 1.11319e-014
lhumerus 8.53906 -25.867 79.0843
lradius 72.0221
lwrist 11.2177
lhand -26.5512 31.2923
lfingers 7.12502
lthumb 0.0133719 61.2721
rfemur -33.3693 4.238 22.4108
rtibia 45.7512
rfoot -2.31196 -5.20951
rtoes 4.07877
lfemur -43.0831 8.44978 -26.3903
ltibia 37.3078
lfoot -15.9515 -1.98952
ltoes 0.330309
868
root 1.52817 32.7333 -2.48536 -161.395 -15.1879 -176.064
lowerback 9.6656 -1.59866 -5.02082
upperback 1.68899 -2.77906 -0.266308
thorax -3.43493 -1.38043 2.88963
lowerneck -12.6876 9.64062 -25.6442
upperneck 38.7348 10.9127 19.2465
head 11.7624 2.59722 13.3139
rclavicle 3.10104e-014 1.74931e-014
rhumerus -15.1135 0.430387 -83.1438
rradius 73.1279
rwrist -10.1752
rhand -30.222 12.5374
rfingers 7.12502
rthumb -3.53189 -17.4131
lclavicle 3.10104e-014 1.74931e-014
lhumerus 8.73498 -26.2615 78.7159
lradius 72.4867
lwrist 11.3203
lhand -26.7306 31.7371
lfingers 7.12502
lthumb -0.159877 61.7168
rfemur -33.4671 4.36899 21.8714
rtibia 45.5556
rfoot -1.37157 -4.87951
rtoes 3.95054
lfemur -43.5801 8.49876 -26.9454
ltibia 38.0152
lfoot -16.3514 -2.21795
ltoes 1.03469
869
root 1.53755 32.6873 -2.48399 -161.227 -15.5598 -176.321
lowerback 9.67655 -1.64179 -5.25165
upperback 1.63787 -2.85998 -0.261508
thorax -3.4759 -1.41492 3.03502
lowerneck -12.4585 9.63198 -25.3125
upperneck 38.62 10.9174 18.726
head 11.758 2.5832 13.0004
rclavicle 1.51076e-014 -1.43125e-014
rhumerus -15.4019 0.382596 -82.8814
rradius 73.6884
rwrist -10.0723
rhand -30.5715 12.5357
rfingers 7.12502
rthumb -3.86934 -17.4089
lclavicle 1.51076e-014 -1.43125e-014
lhumerus 8.95495 -26.6298 78.5668
lradius 72.9065
lwrist 11.3217
lhand -26.9826 32.1733
lfingers 7.12502
lthumb -0.403307 62.1526
rfemur -33.4341 4.2843 21.6293
rtibia 45.1368
rfoot -0.617621 -4.66694
rtoes 4.33478
lfemur -44.157 8.52662 -27.2974
ltibia 38.7447
lfoot -16.7389 -2.60511
ltoes 0.50092
870
root 1.54665 32.6392 -2.47239 -161.151 -16.1437 -176.283
lowerback 9.7732 -1.76266 -4.96654
upperback 1.62842 -2.99469 -0.254547
thorax -3.54158 -1.48186 2.90286
lowerneck -12.3901 9.58709 -24.9462
upperneck 38.6008 10.8809 18.2733
head 11.8313 2.55409 12.7451
rclavicle 2.54444e-014 -9.54166e-015
rhumerus -15.6393 0.227191 -82.7888
rradius 74.3227
rwrist -9.78653
rhand -30.9404 12.256
rfingers 7.12502
rthumb -4.22563 -17.6818
lclavicle 2.54444e-014 -9.54166e-015
lhumerus 9.32915 -27.0107 78.2085
lradius 73.2609
lwrist 11.295
lhand -27.1214 32.5883
lfingers 7.12502
lthumb -0.537307 62.5674
rfemur -33.3515 4.08806 21.7269
rtibia 44.5881
rfoot 0.204426 -4.62054
rtoes 4.85698
lfemur -44.7612 8.31106 -27.2536
ltibia 39.4905
lfoot -17.0051 -2.98177
ltoes 0.70517
871
root 1.55867 32.5949 -2.46485 -161.164 -16.343 -176.418
lowerback 9.98372 -1.82286 -5.18997
upperback 1.65677 -3.10944 -0.172156
thorax -3.60267 -1.53574 3.13636
lowerneck -12.5371 9.54503 -24.9903
upperneck 38.6766 10.9878 17.944
head 11.9104 2.54562 12.6405
rclavicle -1.82882e-014 -1.59028e-014
rhumerus -15.6506 0.51922 -82.5582
rradius 74.8442
rwrist -9.66409
rhand -31.3841 11.733
rfingers 7.12502
rthumb -4.65405 -18.1958
lclavicle -1.82882e-014 -1.59028e-014
lhumerus 9.51599 -26.9793 78.0592
lradius 73.7122
lwrist 11.1894
lhand -27.2307 33.0737
lfingers 7.12502
lthumb -0.642953 63.0524
rfemur -33.0993 4.08356 21.5742
rtibia 43.8911
rfoot 1.37601 -4.59752
rtoes 6.80288
lfemur -45.226 8.45693 -27.4898
ltibia 40.3492
lfoot -17.4308 -3.39602
ltoes 1.65861
872
root 1.5716 32.5429 -2.46129 -161.211 -16.3423 -176.6
lowerback 10.1493 -1.75786 -5.5451
upperback 1.70668 -3.0761 -0.160207
thorax -3.62623 -1.51801 3.35035
lowerneck -12.4731 9.52123 -24.8927
upperneck 38.6041 11.0407 17.5848
head 11.9094 2.54426 12.4594
rclavicle -3.4191e-014 -2.38542e-014
rhumerus -15.7193 0.592638 -82.3213
rradius 75.4003
rwrist -9.54384
rhand -31.7503 11.4822
rfingers 7.12502
rthumb -5.00764 -18.4387
lclavicle -3.4191e-014 -2.38542e-014
lhumerus 9.69134 -27.1331 77.9295
lradius 74.1966
lwrist 11.0284
lhand -27.3519 33.4197
lfingers 7.12502
lthumb -0.759928 63.398
rfemur -32.7659 4.19985 21.3439
rtibia 43.0948
rfoot 2.29192 -5.05523
rtoes 7.35969
lfemur -45.6965 8.84671 -27.8533
ltibia 41.3037
lfoot -17.8957 -3.71025
ltoes 2.01084
873
root 1.58551 32.4862 -2.45005 -161.228 -16.7745 -176.557
lowerback 10.2833 -1.82687 -5.30164
upperback 1.73062 -3.15382 -0.219758
thorax -3.68476 -1.55913 3.1672
lowerneck -12.2561 9.49363 -24.4276
upperneck 38.4043 10.9822 17.1308
head 11.8855 2.54196 12.1512
rclavicle -3.89618e-014 -9.54166e-015
rhumerus -16.03 0.363386 -82.2745
rradius 76.2657
rwrist -9.62207
rhand -31.8002 11.2711
rfingers 7.12502
rthumb -5.05578 -18.6485
lclavicle -3.89618e-014 -9.54166e-015
lhumerus 10.0454 -27.5712 77.4784
lradius 74.6336
lwrist 11.0062
lhand -27.6465 34.1103
lfingers 7.12502
lthumb -1.04446 64.0875
rfemur -32.5223 3.95816 21.4658
rtibia 42.2372
rfoot 3.22081 -5.54821
rtoes 7.3931
lfemur -46.323 9.00896 -27.9406
ltibia 42.2686
lfoot -18.3157 -4.24865
ltoes 2.34738
874
root 1.59839 32.4386 -2.436 -161.261 -17.4118 -176.461
lowerback 10.4312 -2.06359 -5.01438
upperback 1.77882 -3.43854 -0.111366
thorax -3.70027 -1.70323 3.16022
lowerneck -12.2329 9.49532 -24.2045
upperneck 38.2675 11.1167 16.6148
head 11.8733 2.58409 11.8842
rclavicle 2.46493e-014 -2.06736e-014
rhumerus -16.3304 0.584598 -82.1146
rradius 77.2741
rwrist -9.78243
rhand -31.8325 11.2452
rfingers 7.12502
rthumb -5.08702 -18.6737
lclavicle 2.46493e-014 -2.06736e-014
lhumerus 10.4229 -27.5877 77.086
lradius 75.0214
lwrist 11.0553
lhand -27.9914 34.8843
lfingers 7.12502
lthumb -1.37759 64.8596
rfemur -32.2565 3.58184 21.6896
rtibia 41.2948
rfoot 4.64237 -5.64099
rtoes 10.8758
lfemur -46.9164 9.0709 -27.9425
ltibia 43.2164
lfoot -18.7417 -4.84706
ltoes 2.6715
875
root 1.61448 32.3924 -2.43087 -161.188 -17.7186 -176.747
lowerback 10.5221 -2.14974 -5.26517
upperback 1.80051 -3.59103 -0.146126
thorax -3.70143 -1.7779 3.28726
lowerneck -12.1181 9.50038 -23.912
upperneck 38.1657 11.1689 16.1666
head 11.8719 2.59671 11.6316
rclavicle 5.1684e-014 -4.45278e-014
rhumerus -16.6266 0.693894 -81.9587
rradius 78.1717
rwrist -9.89233
rhand -31.8559 10.9299
rfingers 7.12502
rthumb -5.10957 -18.9885
lclavicle 5.1684e-014 -4.45278e-014
lhumerus 10.7983 -27.7806 76.6169
lradius 75.4033
lwrist 11.1829
lhand -28.1365 35.5928
lfingers 7.12502
lthumb -1.51779 65.5671
rfemur -31.9838 3.54757 21.4045
rtibia 40.2791
rfoot 5.45027 -6.55297
rtoes 10.4624
lfemur -47.4274 9.18774 -28.3382
ltibia 44.1184
lfoot -19.2421 -5.36055
ltoes 3.26648
876
root 1.63735 32.3423 -2.43406 -161.026 -17.7455 -176.906
lowerback 10.4557 -2.04839 -5.52899
upperback 1.74776 -3.49046 -0.285428
thorax -3.72246 -1.72415 3.2754
lowerneck -11.8037 9.42833 -23.3634
upperneck 37.9969 11.0032 15.6322
head 11.8804 2.53184 11.2791
rclavicle -4.21423e-014 -5.56597e-014
rhumerus -17.039 0.417501 -81.9373
rradius 78.9585
rwrist -9.94154
rhand -31.9017 10.4227
rfingers 7.12502
rthumb -5.15386 -19.4946
lclavicle -4.21423e-014 -5.56597e-014
lhumerus 11.2691 -28.3449 76.064
lradius 75.6607
lwrist 11.3452
lhand -28.2259 36.3053
lfingers 7.12502
lthumb -1.60413 66.2791
rfemur -31.8627 3.86767 21.1786
rtibia 39.1711
rfoot 6.68485 -7.24652
rtoes 11.2868
lfemur -48.0916 9.55361 -28.6731
ltibia 44.987
lfoot -19.705 -5.77929
ltoes 3.37137
877
root 1.66475 32.2913 -2.43059 -160.88 -17.8608 -176.816
lowerback 10.363 -1.99601 -5.78463
upperback 1.73028 -3.43085 -0.110425
thorax -3.66868 -1.69025 3.58908
lowerneck -11.6386 9.36001 -23.1177
upperneck 37.8997 11.0096 14.9719
head 11.9073 2.48284 10.9493
rclavicle 1.43125e-014 3.33958e-014
rhumerus -17.2392 0.520432 -81.6403
rradius 79.5755
rwrist -9.46163
rhand -32.6032 10.2507
rfingers 7.12502
rthumb -5.83111 -19.6491
lclavicle 1.43125e-014 3.33958e-014
lhumerus 11.7674 -28.5211 75.8468
lradius 75.8773
lwrist 11.4342
lhand -28.2859 36.9682
lfingers 7.12502
lthumb -1.66199 66.9415
rfemur -31.825 4.26017 21.1896
rtibia 37.9833
rfoot 7.60363 -8.33164
rtoes 11.5052
lfemur -48.8974 9.9386 -28.7536
ltibia 45.9123
lfoot -20.0874 -6.20734
ltoes 3.44647
